<mxfile host="Electron" agent="Mozilla/5.0 (Windows NT 10.0; Win64; x64) AppleWebKit/537.36 (KHTML, like Gecko) draw.io/24.7.8 Chrome/128.0.6613.36 Electron/32.0.1 Safari/537.36" version="24.7.8">
  <diagram name="Seite-1" id="uDi73iDS1Jls_HMcUIp8">
    <mxGraphModel dx="607" dy="-333" grid="1" gridSize="10" guides="1" tooltips="1" connect="1" arrows="1" fold="1" page="1" pageScale="1" pageWidth="827" pageHeight="1169" math="0" shadow="0">
      <root>
        <mxCell id="0" />
        <mxCell id="1" parent="0" />
        <mxCell id="uOQ9RMXNFLcsvWfju1oq-1" style="edgeStyle=orthogonalEdgeStyle;rounded=0;orthogonalLoop=1;jettySize=auto;html=1;entryX=0;entryY=0.5;entryDx=0;entryDy=0;" edge="1" parent="1" source="uOQ9RMXNFLcsvWfju1oq-3" target="uOQ9RMXNFLcsvWfju1oq-6">
          <mxGeometry relative="1" as="geometry" />
        </mxCell>
        <mxCell id="uOQ9RMXNFLcsvWfju1oq-2" style="edgeStyle=orthogonalEdgeStyle;rounded=0;orthogonalLoop=1;jettySize=auto;html=1;entryX=0.5;entryY=0;entryDx=0;entryDy=0;" edge="1" parent="1" source="uOQ9RMXNFLcsvWfju1oq-3" target="uOQ9RMXNFLcsvWfju1oq-37">
          <mxGeometry relative="1" as="geometry" />
        </mxCell>
        <mxCell id="uOQ9RMXNFLcsvWfju1oq-3" value="" style="rhombus;whiteSpace=wrap;html=1;" vertex="1" parent="1">
          <mxGeometry x="1680" y="1515" width="60" height="30" as="geometry" />
        </mxCell>
        <mxCell id="uOQ9RMXNFLcsvWfju1oq-4" style="edgeStyle=orthogonalEdgeStyle;rounded=0;orthogonalLoop=1;jettySize=auto;html=1;entryX=0;entryY=0.5;entryDx=0;entryDy=0;" edge="1" parent="1" source="uOQ9RMXNFLcsvWfju1oq-6" target="uOQ9RMXNFLcsvWfju1oq-10">
          <mxGeometry relative="1" as="geometry" />
        </mxCell>
        <mxCell id="uOQ9RMXNFLcsvWfju1oq-5" style="edgeStyle=orthogonalEdgeStyle;rounded=0;orthogonalLoop=1;jettySize=auto;html=1;exitX=0.5;exitY=1;exitDx=0;exitDy=0;entryX=0;entryY=0.5;entryDx=0;entryDy=0;" edge="1" parent="1" source="uOQ9RMXNFLcsvWfju1oq-6" target="uOQ9RMXNFLcsvWfju1oq-15">
          <mxGeometry relative="1" as="geometry" />
        </mxCell>
        <mxCell id="uOQ9RMXNFLcsvWfju1oq-6" value="" style="rhombus;whiteSpace=wrap;html=1;" vertex="1" parent="1">
          <mxGeometry x="1825" y="1515" width="60" height="30" as="geometry" />
        </mxCell>
        <mxCell id="uOQ9RMXNFLcsvWfju1oq-7" value="Turbo=0" style="text;html=1;align=center;verticalAlign=middle;resizable=0;points=[];autosize=1;strokeColor=none;fillColor=none;" vertex="1" parent="1">
          <mxGeometry x="1740" y="1500" width="70" height="30" as="geometry" />
        </mxCell>
        <mxCell id="uOQ9RMXNFLcsvWfju1oq-8" style="edgeStyle=orthogonalEdgeStyle;rounded=0;orthogonalLoop=1;jettySize=auto;html=1;entryX=0;entryY=0.5;entryDx=0;entryDy=0;" edge="1" parent="1" source="uOQ9RMXNFLcsvWfju1oq-10" target="uOQ9RMXNFLcsvWfju1oq-15">
          <mxGeometry relative="1" as="geometry">
            <Array as="points">
              <mxPoint x="1980" y="1650" />
            </Array>
          </mxGeometry>
        </mxCell>
        <mxCell id="uOQ9RMXNFLcsvWfju1oq-9" style="edgeStyle=orthogonalEdgeStyle;rounded=0;orthogonalLoop=1;jettySize=auto;html=1;entryX=0;entryY=0.5;entryDx=0;entryDy=0;" edge="1" parent="1" source="uOQ9RMXNFLcsvWfju1oq-10" target="uOQ9RMXNFLcsvWfju1oq-18">
          <mxGeometry relative="1" as="geometry" />
        </mxCell>
        <mxCell id="uOQ9RMXNFLcsvWfju1oq-10" value="" style="rhombus;whiteSpace=wrap;html=1;" vertex="1" parent="1">
          <mxGeometry x="1950" y="1515" width="60" height="30" as="geometry" />
        </mxCell>
        <mxCell id="uOQ9RMXNFLcsvWfju1oq-11" value="6 gew체rfelt" style="text;html=1;align=center;verticalAlign=middle;resizable=0;points=[];autosize=1;strokeColor=none;fillColor=none;" vertex="1" parent="1">
          <mxGeometry x="1870" y="1498" width="80" height="30" as="geometry" />
        </mxCell>
        <mxCell id="uOQ9RMXNFLcsvWfju1oq-12" style="edgeStyle=orthogonalEdgeStyle;rounded=0;orthogonalLoop=1;jettySize=auto;html=1;entryX=0;entryY=0.5;entryDx=0;entryDy=0;" edge="1" parent="1" source="uOQ9RMXNFLcsvWfju1oq-13" target="uOQ9RMXNFLcsvWfju1oq-24">
          <mxGeometry relative="1" as="geometry" />
        </mxCell>
        <mxCell id="uOQ9RMXNFLcsvWfju1oq-13" value="WaitigPiece" style="rounded=1;whiteSpace=wrap;html=1;" vertex="1" parent="1">
          <mxGeometry x="2270" y="1500" width="120" height="60" as="geometry" />
        </mxCell>
        <mxCell id="uOQ9RMXNFLcsvWfju1oq-14" style="edgeStyle=orthogonalEdgeStyle;rounded=0;orthogonalLoop=1;jettySize=auto;html=1;entryX=0;entryY=1;entryDx=0;entryDy=0;" edge="1" parent="1" source="uOQ9RMXNFLcsvWfju1oq-15" target="uOQ9RMXNFLcsvWfju1oq-24">
          <mxGeometry relative="1" as="geometry" />
        </mxCell>
        <mxCell id="uOQ9RMXNFLcsvWfju1oq-15" value="NoTurn" style="rounded=1;whiteSpace=wrap;html=1;" vertex="1" parent="1">
          <mxGeometry x="2273.59" y="1620" width="120" height="60" as="geometry" />
        </mxCell>
        <mxCell id="uOQ9RMXNFLcsvWfju1oq-16" style="edgeStyle=orthogonalEdgeStyle;rounded=0;orthogonalLoop=1;jettySize=auto;html=1;exitX=1;exitY=0.5;exitDx=0;exitDy=0;entryX=0;entryY=0.5;entryDx=0;entryDy=0;" edge="1" parent="1" source="uOQ9RMXNFLcsvWfju1oq-18" target="uOQ9RMXNFLcsvWfju1oq-13">
          <mxGeometry relative="1" as="geometry" />
        </mxCell>
        <mxCell id="uOQ9RMXNFLcsvWfju1oq-17" style="edgeStyle=orthogonalEdgeStyle;rounded=0;orthogonalLoop=1;jettySize=auto;html=1;exitX=0.5;exitY=1;exitDx=0;exitDy=0;entryX=0;entryY=0.5;entryDx=0;entryDy=0;" edge="1" parent="1" source="uOQ9RMXNFLcsvWfju1oq-18" target="uOQ9RMXNFLcsvWfju1oq-15">
          <mxGeometry relative="1" as="geometry" />
        </mxCell>
        <mxCell id="uOQ9RMXNFLcsvWfju1oq-18" value="" style="rhombus;whiteSpace=wrap;html=1;" vertex="1" parent="1">
          <mxGeometry x="2085" y="1515" width="60" height="30" as="geometry" />
        </mxCell>
        <mxCell id="uOQ9RMXNFLcsvWfju1oq-19" value="Figur im WarteBereich" style="text;html=1;align=center;verticalAlign=middle;resizable=0;points=[];autosize=1;strokeColor=none;fillColor=none;" vertex="1" parent="1">
          <mxGeometry x="1960" y="1488" width="140" height="30" as="geometry" />
        </mxCell>
        <mxCell id="uOQ9RMXNFLcsvWfju1oq-20" value="Startfeld frei" style="text;html=1;align=center;verticalAlign=middle;resizable=0;points=[];autosize=1;strokeColor=none;fillColor=none;" vertex="1" parent="1">
          <mxGeometry x="2125" y="1488" width="90" height="30" as="geometry" />
        </mxCell>
        <mxCell id="uOQ9RMXNFLcsvWfju1oq-21" style="edgeStyle=orthogonalEdgeStyle;rounded=0;orthogonalLoop=1;jettySize=auto;html=1;entryX=0.5;entryY=1;entryDx=0;entryDy=0;" edge="1" parent="1" source="uOQ9RMXNFLcsvWfju1oq-22" target="uOQ9RMXNFLcsvWfju1oq-24">
          <mxGeometry relative="1" as="geometry" />
        </mxCell>
        <mxCell id="uOQ9RMXNFLcsvWfju1oq-22" value="StartPiece" style="rounded=1;whiteSpace=wrap;html=1;" vertex="1" parent="1">
          <mxGeometry x="2273.59" y="1795" width="120" height="60" as="geometry" />
        </mxCell>
        <mxCell id="uOQ9RMXNFLcsvWfju1oq-23" value="ChoosePiece" style="shape=umlFrame;whiteSpace=wrap;html=1;pointerEvents=0;recursiveResize=0;container=1;collapsible=0;width=160;" vertex="1" parent="1">
          <mxGeometry x="1340" y="1440" width="1230" height="870" as="geometry" />
        </mxCell>
        <mxCell id="uOQ9RMXNFLcsvWfju1oq-24" value="" style="ellipse;whiteSpace=wrap;html=1;aspect=fixed;" vertex="1" parent="uOQ9RMXNFLcsvWfju1oq-23">
          <mxGeometry x="1180" y="70" width="40" height="40" as="geometry" />
        </mxCell>
        <mxCell id="uOQ9RMXNFLcsvWfju1oq-25" value="" style="ellipse;whiteSpace=wrap;html=1;aspect=fixed;fillColor=#000000;" vertex="1" parent="uOQ9RMXNFLcsvWfju1oq-23">
          <mxGeometry x="1186.4099999999999" y="76.40999999999985" width="27.18" height="27.18" as="geometry" />
        </mxCell>
        <mxCell id="uOQ9RMXNFLcsvWfju1oq-26" value="Spieler best채tigt" style="text;html=1;align=center;verticalAlign=middle;resizable=0;points=[];autosize=1;strokeColor=none;fillColor=none;" vertex="1" parent="uOQ9RMXNFLcsvWfju1oq-23">
          <mxGeometry x="1080" y="350" width="110" height="30" as="geometry" />
        </mxCell>
        <mxCell id="uOQ9RMXNFLcsvWfju1oq-27" value="Spieler best채tigt" style="text;html=1;align=center;verticalAlign=middle;resizable=0;points=[];autosize=1;strokeColor=none;fillColor=none;" vertex="1" parent="uOQ9RMXNFLcsvWfju1oq-23">
          <mxGeometry x="1063.59" y="180" width="110" height="30" as="geometry" />
        </mxCell>
        <mxCell id="uOQ9RMXNFLcsvWfju1oq-28" value="Spieler best채tigt" style="text;html=1;align=center;verticalAlign=middle;resizable=0;points=[];autosize=1;strokeColor=none;fillColor=none;" vertex="1" parent="uOQ9RMXNFLcsvWfju1oq-23">
          <mxGeometry x="1055" y="60" width="110" height="30" as="geometry" />
        </mxCell>
        <mxCell id="uOQ9RMXNFLcsvWfju1oq-29" style="edgeStyle=orthogonalEdgeStyle;rounded=0;orthogonalLoop=1;jettySize=auto;html=1;entryX=0;entryY=0.5;entryDx=0;entryDy=0;" edge="1" parent="uOQ9RMXNFLcsvWfju1oq-23" source="uOQ9RMXNFLcsvWfju1oq-30" target="uOQ9RMXNFLcsvWfju1oq-34">
          <mxGeometry relative="1" as="geometry" />
        </mxCell>
        <mxCell id="uOQ9RMXNFLcsvWfju1oq-30" value="NoPiece" style="rounded=1;whiteSpace=wrap;html=1;" vertex="1" parent="uOQ9RMXNFLcsvWfju1oq-23">
          <mxGeometry x="90" y="60" width="120" height="60" as="geometry" />
        </mxCell>
        <mxCell id="uOQ9RMXNFLcsvWfju1oq-31" value="" style="ellipse;whiteSpace=wrap;html=1;aspect=fixed;fillColor=#000000;" vertex="1" parent="uOQ9RMXNFLcsvWfju1oq-23">
          <mxGeometry x="20" y="70" width="40" height="40" as="geometry" />
        </mxCell>
        <mxCell id="uOQ9RMXNFLcsvWfju1oq-32" style="edgeStyle=orthogonalEdgeStyle;rounded=0;orthogonalLoop=1;jettySize=auto;html=1;entryX=0;entryY=0.5;entryDx=0;entryDy=0;" edge="1" parent="uOQ9RMXNFLcsvWfju1oq-23" source="uOQ9RMXNFLcsvWfju1oq-31" target="uOQ9RMXNFLcsvWfju1oq-30">
          <mxGeometry relative="1" as="geometry">
            <mxPoint x="130" y="180" as="targetPoint" />
          </mxGeometry>
        </mxCell>
        <mxCell id="uOQ9RMXNFLcsvWfju1oq-33" style="edgeStyle=orthogonalEdgeStyle;rounded=0;orthogonalLoop=1;jettySize=auto;html=1;entryX=0;entryY=0.5;entryDx=0;entryDy=0;" edge="1" parent="uOQ9RMXNFLcsvWfju1oq-23" source="uOQ9RMXNFLcsvWfju1oq-34" target="uOQ9RMXNFLcsvWfju1oq-37">
          <mxGeometry relative="1" as="geometry">
            <Array as="points">
              <mxPoint x="284" y="385" />
            </Array>
          </mxGeometry>
        </mxCell>
        <mxCell id="uOQ9RMXNFLcsvWfju1oq-34" value="" style="rhombus;whiteSpace=wrap;html=1;" vertex="1" parent="uOQ9RMXNFLcsvWfju1oq-23">
          <mxGeometry x="254" y="75.00000000000009" width="60" height="30" as="geometry" />
        </mxCell>
        <mxCell id="uOQ9RMXNFLcsvWfju1oq-35" style="edgeStyle=orthogonalEdgeStyle;rounded=0;orthogonalLoop=1;jettySize=auto;html=1;entryX=0;entryY=0.5;entryDx=0;entryDy=0;" edge="1" parent="uOQ9RMXNFLcsvWfju1oq-23" source="uOQ9RMXNFLcsvWfju1oq-37" target="uOQ9RMXNFLcsvWfju1oq-40">
          <mxGeometry relative="1" as="geometry" />
        </mxCell>
        <mxCell id="uOQ9RMXNFLcsvWfju1oq-36" style="edgeStyle=orthogonalEdgeStyle;rounded=0;orthogonalLoop=1;jettySize=auto;html=1;entryX=0;entryY=0.5;entryDx=0;entryDy=0;" edge="1" parent="uOQ9RMXNFLcsvWfju1oq-23" source="uOQ9RMXNFLcsvWfju1oq-37" target="uOQ9RMXNFLcsvWfju1oq-44">
          <mxGeometry relative="1" as="geometry">
            <Array as="points">
              <mxPoint x="370" y="595" />
            </Array>
          </mxGeometry>
        </mxCell>
        <mxCell id="uOQ9RMXNFLcsvWfju1oq-37" value="" style="rhombus;whiteSpace=wrap;html=1;" vertex="1" parent="uOQ9RMXNFLcsvWfju1oq-23">
          <mxGeometry x="340" y="370" width="60" height="30" as="geometry" />
        </mxCell>
        <mxCell id="uOQ9RMXNFLcsvWfju1oq-38" style="edgeStyle=orthogonalEdgeStyle;rounded=0;orthogonalLoop=1;jettySize=auto;html=1;entryX=0;entryY=0.5;entryDx=0;entryDy=0;" edge="1" parent="uOQ9RMXNFLcsvWfju1oq-23" source="uOQ9RMXNFLcsvWfju1oq-40" target="uOQ9RMXNFLcsvWfju1oq-43">
          <mxGeometry relative="1" as="geometry" />
        </mxCell>
        <mxCell id="uOQ9RMXNFLcsvWfju1oq-39" style="edgeStyle=orthogonalEdgeStyle;rounded=0;orthogonalLoop=1;jettySize=auto;html=1;entryX=0.5;entryY=0;entryDx=0;entryDy=0;" edge="1" parent="uOQ9RMXNFLcsvWfju1oq-23" source="uOQ9RMXNFLcsvWfju1oq-40" target="uOQ9RMXNFLcsvWfju1oq-49">
          <mxGeometry relative="1" as="geometry" />
        </mxCell>
        <mxCell id="uOQ9RMXNFLcsvWfju1oq-40" value="" style="rhombus;whiteSpace=wrap;html=1;" vertex="1" parent="uOQ9RMXNFLcsvWfju1oq-23">
          <mxGeometry x="480" y="370" width="60" height="30" as="geometry" />
        </mxCell>
        <mxCell id="uOQ9RMXNFLcsvWfju1oq-41" value="Wartebereich nicht frei" style="text;html=1;align=center;verticalAlign=middle;resizable=0;points=[];autosize=1;strokeColor=none;fillColor=none;" vertex="1" parent="uOQ9RMXNFLcsvWfju1oq-23">
          <mxGeometry x="370" y="350" width="140" height="30" as="geometry" />
        </mxCell>
        <mxCell id="uOQ9RMXNFLcsvWfju1oq-42" style="edgeStyle=orthogonalEdgeStyle;rounded=0;orthogonalLoop=1;jettySize=auto;html=1;entryX=0.5;entryY=0;entryDx=0;entryDy=0;" edge="1" parent="uOQ9RMXNFLcsvWfju1oq-23" source="uOQ9RMXNFLcsvWfju1oq-43" target="uOQ9RMXNFLcsvWfju1oq-44">
          <mxGeometry relative="1" as="geometry" />
        </mxCell>
        <mxCell id="uOQ9RMXNFLcsvWfju1oq-43" value="" style="rhombus;whiteSpace=wrap;html=1;" vertex="1" parent="uOQ9RMXNFLcsvWfju1oq-23">
          <mxGeometry x="620" y="370" width="60" height="30" as="geometry" />
        </mxCell>
        <mxCell id="uOQ9RMXNFLcsvWfju1oq-44" value="" style="rhombus;whiteSpace=wrap;html=1;" vertex="1" parent="uOQ9RMXNFLcsvWfju1oq-23">
          <mxGeometry x="620" y="580" width="60" height="30" as="geometry" />
        </mxCell>
        <mxCell id="uOQ9RMXNFLcsvWfju1oq-45" value="Startfeld frei" style="text;html=1;align=center;verticalAlign=middle;resizable=0;points=[];autosize=1;strokeColor=none;fillColor=none;" vertex="1" parent="uOQ9RMXNFLcsvWfju1oq-23">
          <mxGeometry x="530" y="350" width="90" height="30" as="geometry" />
        </mxCell>
        <mxCell id="uOQ9RMXNFLcsvWfju1oq-46" value="Wartebereich frei" style="text;html=1;align=center;verticalAlign=middle;resizable=0;points=[];autosize=1;strokeColor=none;fillColor=none;" vertex="1" parent="uOQ9RMXNFLcsvWfju1oq-23">
          <mxGeometry x="240" y="408" width="110" height="30" as="geometry" />
        </mxCell>
        <mxCell id="uOQ9RMXNFLcsvWfju1oq-47" value="6" style="text;html=1;align=center;verticalAlign=middle;resizable=0;points=[];autosize=1;strokeColor=none;fillColor=none;" vertex="1" parent="uOQ9RMXNFLcsvWfju1oq-23">
          <mxGeometry x="680" y="350" width="30" height="30" as="geometry" />
        </mxCell>
        <mxCell id="uOQ9RMXNFLcsvWfju1oq-48" style="edgeStyle=orthogonalEdgeStyle;rounded=0;orthogonalLoop=1;jettySize=auto;html=1;entryX=0;entryY=0;entryDx=0;entryDy=0;" edge="1" parent="uOQ9RMXNFLcsvWfju1oq-23" source="uOQ9RMXNFLcsvWfju1oq-49" target="uOQ9RMXNFLcsvWfju1oq-44">
          <mxGeometry relative="1" as="geometry">
            <Array as="points">
              <mxPoint x="510" y="530" />
              <mxPoint x="635" y="530" />
            </Array>
          </mxGeometry>
        </mxCell>
        <mxCell id="uOQ9RMXNFLcsvWfju1oq-49" value="" style="rhombus;whiteSpace=wrap;html=1;" vertex="1" parent="uOQ9RMXNFLcsvWfju1oq-23">
          <mxGeometry x="480" y="470" width="60" height="30" as="geometry" />
        </mxCell>
        <mxCell id="uOQ9RMXNFLcsvWfju1oq-50" value="Figur auf Startfeld&lt;div&gt;bewegbar&lt;/div&gt;" style="text;html=1;align=center;verticalAlign=middle;resizable=0;points=[];autosize=1;strokeColor=none;fillColor=none;" vertex="1" parent="uOQ9RMXNFLcsvWfju1oq-23">
          <mxGeometry x="520" y="443" width="120" height="40" as="geometry" />
        </mxCell>
        <mxCell id="uOQ9RMXNFLcsvWfju1oq-51" style="edgeStyle=orthogonalEdgeStyle;rounded=0;orthogonalLoop=1;jettySize=auto;html=1;entryX=0;entryY=0.5;entryDx=0;entryDy=0;" edge="1" parent="uOQ9RMXNFLcsvWfju1oq-23" source="uOQ9RMXNFLcsvWfju1oq-52" target="uOQ9RMXNFLcsvWfju1oq-56">
          <mxGeometry relative="1" as="geometry" />
        </mxCell>
        <mxCell id="uOQ9RMXNFLcsvWfju1oq-52" value="NoSelectedPiece" style="rounded=1;whiteSpace=wrap;html=1;" vertex="1" parent="uOQ9RMXNFLcsvWfju1oq-23">
          <mxGeometry x="590" y="680" width="120" height="60" as="geometry" />
        </mxCell>
        <mxCell id="uOQ9RMXNFLcsvWfju1oq-53" value="SelectedPiece" style="rounded=1;whiteSpace=wrap;html=1;" vertex="1" parent="uOQ9RMXNFLcsvWfju1oq-23">
          <mxGeometry x="943.5900000000001" y="680" width="120" height="60" as="geometry" />
        </mxCell>
        <mxCell id="uOQ9RMXNFLcsvWfju1oq-54" style="edgeStyle=orthogonalEdgeStyle;rounded=0;orthogonalLoop=1;jettySize=auto;html=1;entryX=0;entryY=0.5;entryDx=0;entryDy=0;" edge="1" parent="uOQ9RMXNFLcsvWfju1oq-23" source="uOQ9RMXNFLcsvWfju1oq-56" target="uOQ9RMXNFLcsvWfju1oq-53">
          <mxGeometry relative="1" as="geometry" />
        </mxCell>
        <mxCell id="uOQ9RMXNFLcsvWfju1oq-55" style="edgeStyle=orthogonalEdgeStyle;rounded=0;orthogonalLoop=1;jettySize=auto;html=1;entryX=0.5;entryY=1;entryDx=0;entryDy=0;" edge="1" parent="uOQ9RMXNFLcsvWfju1oq-23" source="uOQ9RMXNFLcsvWfju1oq-56" target="uOQ9RMXNFLcsvWfju1oq-52">
          <mxGeometry relative="1" as="geometry">
            <Array as="points">
              <mxPoint x="810" y="760" />
              <mxPoint x="650" y="760" />
            </Array>
          </mxGeometry>
        </mxCell>
        <mxCell id="uOQ9RMXNFLcsvWfju1oq-56" value="" style="rhombus;whiteSpace=wrap;html=1;" vertex="1" parent="uOQ9RMXNFLcsvWfju1oq-23">
          <mxGeometry x="780" y="695" width="60" height="30" as="geometry" />
        </mxCell>
        <mxCell id="uOQ9RMXNFLcsvWfju1oq-57" value="Spieler w채hlt&amp;nbsp;&lt;div&gt;Figur aus&lt;/div&gt;" style="text;html=1;align=center;verticalAlign=middle;resizable=0;points=[];autosize=1;strokeColor=none;fillColor=none;" vertex="1" parent="uOQ9RMXNFLcsvWfju1oq-23">
          <mxGeometry x="700" y="660" width="100" height="40" as="geometry" />
        </mxCell>
        <mxCell id="uOQ9RMXNFLcsvWfju1oq-58" value="[Figur auf valides Feld]" style="text;html=1;align=center;verticalAlign=middle;resizable=0;points=[];autosize=1;strokeColor=none;fillColor=none;" vertex="1" parent="uOQ9RMXNFLcsvWfju1oq-23">
          <mxGeometry x="800" y="668" width="140" height="30" as="geometry" />
        </mxCell>
        <mxCell id="uOQ9RMXNFLcsvWfju1oq-59" style="edgeStyle=orthogonalEdgeStyle;rounded=0;orthogonalLoop=1;jettySize=auto;html=1;entryX=0.194;entryY=0.986;entryDx=0;entryDy=0;entryPerimeter=0;exitX=0.5;exitY=1;exitDx=0;exitDy=0;" edge="1" parent="uOQ9RMXNFLcsvWfju1oq-23" source="uOQ9RMXNFLcsvWfju1oq-53" target="uOQ9RMXNFLcsvWfju1oq-52">
          <mxGeometry relative="1" as="geometry">
            <mxPoint x="1000" y="780" as="sourcePoint" />
            <Array as="points">
              <mxPoint x="1000" y="740" />
              <mxPoint x="1000" y="800" />
              <mxPoint x="613" y="800" />
            </Array>
          </mxGeometry>
        </mxCell>
        <mxCell id="uOQ9RMXNFLcsvWfju1oq-60" value="Spieler w채hlt Figur ab" style="text;html=1;align=center;verticalAlign=middle;resizable=0;points=[];autosize=1;strokeColor=none;fillColor=none;" vertex="1" parent="uOQ9RMXNFLcsvWfju1oq-23">
          <mxGeometry x="1025" y="758" width="140" height="30" as="geometry" />
        </mxCell>
        <mxCell id="uOQ9RMXNFLcsvWfju1oq-61" style="edgeStyle=orthogonalEdgeStyle;rounded=0;orthogonalLoop=1;jettySize=auto;html=1;entryX=0.5;entryY=0;entryDx=0;entryDy=0;" edge="1" parent="uOQ9RMXNFLcsvWfju1oq-23" source="uOQ9RMXNFLcsvWfju1oq-44" target="uOQ9RMXNFLcsvWfju1oq-52">
          <mxGeometry relative="1" as="geometry" />
        </mxCell>
        <mxCell id="uOQ9RMXNFLcsvWfju1oq-62" value="Spieler best채tigt" style="text;html=1;align=center;verticalAlign=middle;resizable=0;points=[];autosize=1;strokeColor=none;fillColor=none;" vertex="1" parent="uOQ9RMXNFLcsvWfju1oq-23">
          <mxGeometry x="1080" y="680" width="110" height="30" as="geometry" />
        </mxCell>
        <mxCell id="uOQ9RMXNFLcsvWfju1oq-63" style="edgeStyle=orthogonalEdgeStyle;rounded=0;orthogonalLoop=1;jettySize=auto;html=1;entryX=1;entryY=1;entryDx=0;entryDy=0;" edge="1" parent="uOQ9RMXNFLcsvWfju1oq-23" source="uOQ9RMXNFLcsvWfju1oq-53" target="uOQ9RMXNFLcsvWfju1oq-24">
          <mxGeometry relative="1" as="geometry" />
        </mxCell>
        <mxCell id="uOQ9RMXNFLcsvWfju1oq-64" value="Keine Figur kann sich bewegen" style="text;html=1;align=center;verticalAlign=middle;resizable=0;points=[];autosize=1;strokeColor=none;fillColor=none;" vertex="1" parent="uOQ9RMXNFLcsvWfju1oq-23">
          <mxGeometry x="655" y="550" width="190" height="30" as="geometry" />
        </mxCell>
        <mxCell id="uOQ9RMXNFLcsvWfju1oq-65" value="Turbo !=0" style="text;html=1;align=center;verticalAlign=middle;resizable=0;points=[];autosize=1;strokeColor=none;fillColor=none;" vertex="1" parent="uOQ9RMXNFLcsvWfju1oq-23">
          <mxGeometry x="370" y="105" width="70" height="30" as="geometry" />
        </mxCell>
        <mxCell id="uOQ9RMXNFLcsvWfju1oq-66" style="edgeStyle=orthogonalEdgeStyle;rounded=0;orthogonalLoop=1;jettySize=auto;html=1;entryX=0;entryY=0.5;entryDx=0;entryDy=0;" edge="1" parent="1" source="uOQ9RMXNFLcsvWfju1oq-34" target="uOQ9RMXNFLcsvWfju1oq-3">
          <mxGeometry relative="1" as="geometry" />
        </mxCell>
        <mxCell id="uOQ9RMXNFLcsvWfju1oq-67" value="Turbo=ja" style="text;html=1;align=center;verticalAlign=middle;resizable=0;points=[];autosize=1;strokeColor=none;fillColor=none;" vertex="1" parent="1">
          <mxGeometry x="1625" y="1488" width="70" height="30" as="geometry" />
        </mxCell>
        <mxCell id="uOQ9RMXNFLcsvWfju1oq-68" value="1-5" style="text;html=1;align=center;verticalAlign=middle;resizable=0;points=[];autosize=1;strokeColor=none;fillColor=none;" vertex="1" parent="1">
          <mxGeometry x="1990" y="1858" width="40" height="30" as="geometry" />
        </mxCell>
        <mxCell id="uOQ9RMXNFLcsvWfju1oq-69" style="edgeStyle=orthogonalEdgeStyle;rounded=0;orthogonalLoop=1;jettySize=auto;html=1;entryX=0;entryY=0.75;entryDx=0;entryDy=0;" edge="1" parent="1" source="uOQ9RMXNFLcsvWfju1oq-43" target="uOQ9RMXNFLcsvWfju1oq-13">
          <mxGeometry relative="1" as="geometry" />
        </mxCell>
        <mxCell id="uOQ9RMXNFLcsvWfju1oq-70" style="edgeStyle=orthogonalEdgeStyle;rounded=0;orthogonalLoop=1;jettySize=auto;html=1;entryX=0;entryY=0.5;entryDx=0;entryDy=0;" edge="1" parent="1" source="uOQ9RMXNFLcsvWfju1oq-49" target="uOQ9RMXNFLcsvWfju1oq-22">
          <mxGeometry relative="1" as="geometry">
            <Array as="points">
              <mxPoint x="2220" y="1925" />
              <mxPoint x="2220" y="1825" />
            </Array>
          </mxGeometry>
        </mxCell>
        <mxCell id="uOQ9RMXNFLcsvWfju1oq-71" style="edgeStyle=orthogonalEdgeStyle;rounded=0;orthogonalLoop=1;jettySize=auto;html=1;entryX=0;entryY=0.75;entryDx=0;entryDy=0;" edge="1" parent="1" source="uOQ9RMXNFLcsvWfju1oq-44" target="uOQ9RMXNFLcsvWfju1oq-15">
          <mxGeometry relative="1" as="geometry">
            <Array as="points">
              <mxPoint x="2180" y="2035" />
              <mxPoint x="2180" y="1665" />
            </Array>
          </mxGeometry>
        </mxCell>
      </root>
    </mxGraphModel>
  </diagram>
</mxfile>
